<svg width="43" height="42" viewBox="0 0 43 42" fill="none" xmlns="http://www.w3.org/2000/svg">
<path d="M22.1734 33.5708L32.0171 39.8208C33.2867 40.6216 34.8492 39.4302 34.4781 37.9654L31.6265 26.7544C31.5494 26.4437 31.5617 26.1175 31.6619 25.8134C31.7621 25.5093 31.9462 25.2397 32.1929 25.0357L41.021 17.6724C42.1734 16.7154 41.5875 14.7818 40.0835 14.6841L28.5601 13.9419C28.2457 13.9236 27.9434 13.8142 27.6902 13.6269C27.437 13.4396 27.2438 13.1826 27.1343 12.8873L22.8375 2.06694C22.7237 1.75425 22.5165 1.48414 22.244 1.29326C21.9714 1.10239 21.6468 1 21.314 1C20.9813 1 20.6566 1.10239 20.3841 1.29326C20.1115 1.48414 19.9043 1.75425 19.7906 2.06694L15.4937 12.8873C15.3842 13.1826 15.191 13.4396 14.9378 13.6269C14.6846 13.8142 14.3823 13.9236 14.0679 13.9419L2.54449 14.6841C1.04058 14.7818 0.454642 16.7154 1.60699 17.6724L10.4351 25.0357C10.6819 25.2397 10.8659 25.5093 10.9662 25.8134C11.0664 26.1175 11.0786 26.4437 11.0015 26.7544L8.3648 37.1451C7.91558 38.9029 9.79058 40.3287 11.2945 39.3716L20.4546 33.5708C20.7115 33.4075 21.0096 33.3208 21.314 33.3208C21.6184 33.3208 21.9165 33.4075 22.1734 33.5708Z" stroke="#01B8E3" stroke-width="2" stroke-linecap="round" stroke-linejoin="round"/>
</svg>
